HIERARCHY
ROOT Hips
{
	OFFSET -0.001795 -0.223333 0.028219
	CHANNELS 6 Xposition Yposition Zposition Zrotation Yrotation Xrotation 
	JOINT LeftUpLeg
	{
		OFFSET 0.069520 -0.091406 -0.006815
		CHANNELS 3 Zrotation Yrotation Xrotation
		JOINT LeftLeg
		{
			OFFSET 0.034277 -0.375199 -0.004496
			CHANNELS 3 Zrotation Yrotation Xrotation
			JOINT LeftFoot
			{
				OFFSET -0.013596 -0.397961 -0.043693
				CHANNELS 3 Zrotation Yrotation Xrotation
				JOINT LeftToe
				{
					OFFSET 0.026358 -0.055791 0.119288
					CHANNELS 3 Zrotation Yrotation Xrotation
					End Site
					{
						OFFSET 0.000000 0.000000 0.000000
					}
				}
			}
		}
	}
	JOINT RightUpLeg
	{
		OFFSET -0.067670 -0.090522 -0.004320
		CHANNELS 3 Zrotation Yrotation Xrotation
		JOINT RightLeg
		{
			OFFSET -0.038290 -0.382569 -0.008850
			CHANNELS 3 Zrotation Yrotation Xrotation
			JOINT RightFoot
			{
				OFFSET 0.015774 -0.398415 -0.042312
				CHANNELS 3 Zrotation Yrotation Xrotation
				JOINT RightToe
				{
					OFFSET -0.025372 -0.048144 0.123348
					CHANNELS 3 Zrotation Yrotation Xrotation
					End Site
					{
						OFFSET 0.000000 0.000000 0.000000
					}
				}
			}
		}
	}
	JOINT Spine
	{
		OFFSET -0.002533 0.108963 -0.026696
		CHANNELS 3 Zrotation Yrotation Xrotation
		JOINT Spine1
		{
			OFFSET 0.005487 0.135180 0.001092
			CHANNELS 3 Zrotation Yrotation Xrotation
			JOINT Spine2
			{
				OFFSET 0.001457 0.052922 0.025425
				CHANNELS 3 Zrotation Yrotation Xrotation
				JOINT Neck
				{
					OFFSET -0.002778 0.213870 -0.042857
					CHANNELS 3 Zrotation Yrotation Xrotation
					JOINT Head
					{
						OFFSET 0.005152 0.064970 0.051349
						CHANNELS 3 Zrotation Yrotation Xrotation
						End Site
						{
							OFFSET 0.000000 0.000000 0.000000
						}
					}
				}
				JOINT LeftShoulder
				{
					OFFSET 0.078845 0.121749 -0.034090
					CHANNELS 3 Zrotation Yrotation Xrotation
					JOINT LeftArm
					{
						OFFSET 0.090977 0.030469 -0.008868
						CHANNELS 3 Zrotation Yrotation Xrotation
						JOINT LeftForeArm
						{
							OFFSET 0.259612 -0.012772 -0.027456
							CHANNELS 3 Zrotation Yrotation Xrotation
							JOINT LeftHand
							{
								OFFSET 0.249234 0.008986 -0.001171
								CHANNELS 3 Zrotation Yrotation Xrotation
								End Site
								{
									OFFSET 0.000000 0.000000 0.000000
								}
							}
						}
					}
				}
				JOINT RightShoulder
				{
					OFFSET -0.081759 0.118833 -0.038615
					CHANNELS 3 Zrotation Yrotation Xrotation
					JOINT RightArm
					{
						OFFSET -0.096012 0.032551 -0.009143
						CHANNELS 3 Zrotation Yrotation Xrotation
						JOINT RightForeArm
						{
							OFFSET -0.253742 -0.013329 -0.021401
							CHANNELS 3 Zrotation Yrotation Xrotation
							JOINT RightHand
							{
								OFFSET -0.255298 0.007772 -0.005559
								CHANNELS 3 Zrotation Yrotation Xrotation
								End Site
								{
									OFFSET 0.000000 0.000000 0.000000
								}
							}
						}
					}
				}
			}
		}
	}
}
MOTION
Frames: 15
Frame Time: 0.050000
0.013593 0.962441 -0.018208 -2.641696 10.467123 7.584284 5.250011 -0.392493 -2.913976 3.727969 0.218990 -9.534968 -2.248556 4.866486 18.273832 0.000000 0.000000 0.000000 -2.360378 0.710707 -8.529937 -2.519228 0.356567 0.983617 3.346486 1.001614 18.158231 0.000000 0.000000 0.000000 -3.944501 0.104241 -2.974218 4.295084 -2.019361 -0.460659 3.052306 -8.732688 -11.001477 -4.392662 3.291448 -15.174071 0.000000 0.000000 0.000000 -4.744499 -18.440188 7.202043 -26.115527 -47.720627 7.695224 36.450413 -70.943263 -22.196852 0.000000 0.000000 0.000000 5.976149 21.707845 7.646810 26.668579 38.138276 5.777033 -115.248148 78.279686 -102.292753 0.000000 0.000000 0.000000 
0.015026 0.963250 -0.018663 -2.760907 11.123030 7.473817 5.036397 -0.389036 -2.902822 4.236985 0.217276 -9.666467 -2.636881 4.481153 18.404325 0.000000 0.000000 0.000000 -2.276320 0.691215 -8.259140 -2.343442 0.336813 0.990729 2.837726 0.267987 18.112998 0.000000 0.000000 0.000000 -3.505196 0.100396 -3.024659 3.841969 -1.793307 -0.569011 2.739857 -7.642286 -10.881994 -2.950513 2.594970 -14.967708 0.000000 0.000000 0.000000 -5.516818 -16.648463 6.324870 -29.353693 -43.836724 7.734033 38.925822 -71.735945 -24.806516 0.000000 0.000000 0.000000 4.871046 21.148339 7.548474 23.861258 40.313250 5.357854 -108.568176 73.735119 -89.556168 0.000000 0.000000 0.000000 
0.016599 0.963702 -0.019262 -2.629895 12.001926 7.501802 4.608016 -0.394737 -3.198834 4.656588 0.203124 -9.539396 -3.125937 3.942346 18.418473 0.000000 0.000000 0.000000 -2.699984 0.666265 -8.364831 -2.269355 0.345556 1.308753 3.003483 0.594172 18.529641 0.000000 0.000000 0.000000 -3.316056 0.097544 -2.885455 3.754232 -1.681510 -1.231290 1.820925 -6.272417 -10.457638 -1.876802 2.092616 -13.811755 0.000000 0.000000 0.000000 -5.881146 -13.989658 4.967927 -33.766289 -39.749787 7.854284 36.174275 -73.875461 -24.394700 0.000000 0.000000 0.000000 3.062791 20.092224 7.240455 20.869769 42.110600 4.745836 -100.922756 68.133525 -74.595779 0.000000 0.000000 0.000000 
0.018101 0.963989 -0.020240 -2.540664 13.121226 7.425267 4.688656 -0.414786 -3.404420 4.288877 0.202472 -9.510451 -3.721513 3.258340 18.385810 0.000000 0.000000 0.000000 -2.877702 0.619196 -7.951410 -1.881862 0.279864 0.953898 2.107134 -0.807194 18.838268 0.000000 0.000000 0.000000 -2.851913 0.092920 -2.897403 3.090927 -1.394073 -1.010993 1.119531 -4.912210 -10.496405 -0.848565 1.634692 -13.654847 0.000000 0.000000 0.000000 -6.723322 -12.058415 3.917936 -36.809349 -35.039599 7.168196 30.885135 -77.261231 -22.451273 0.000000 0.000000 0.000000 1.726747 19.248420 6.997142 16.918414 42.782822 3.634403 -93.690677 60.787909 -59.030433 0.000000 0.000000 0.000000 
0.019281 0.964481 -0.021769 -2.285584 14.401449 7.480239 4.713397 -0.446325 -3.836058 3.738203 0.197818 -9.384468 -4.426852 2.489050 18.469066 0.000000 0.000000 0.000000 -3.113327 0.607190 -8.227615 -1.988406 0.320393 1.483403 1.586783 -1.592896 19.459897 0.000000 0.000000 0.000000 -2.772314 0.086689 -2.403559 2.811366 -1.153928 -2.055831 0.264649 -3.668268 -9.771084 0.614185 0.949535 -13.631496 0.000000 0.000000 0.000000 -7.399383 -10.376462 2.938926 -39.167990 -30.045646 5.990142 19.959060 -79.971636 -15.238776 0.000000 0.000000 0.000000 0.305861 18.180540 6.624369 12.900953 43.580551 2.479996 -84.377963 52.344763 -42.443554 0.000000 0.000000 0.000000 
0.020297 0.964979 -0.023620 -2.091497 15.778426 7.527084 4.811128 -0.500407 -4.651553 3.188186 0.170840 -8.650569 -5.126611 1.668619 18.400847 0.000000 0.000000 0.000000 -3.287762 0.573766 -8.106206 -1.969074 0.323474 1.574890 0.917475 -2.480523 19.605267 0.000000 0.000000 0.000000 -2.133908 0.078969 -2.138276 2.142722 -0.841063 -2.095033 -0.969055 -2.311836 -9.450880 1.887816 0.371826 -13.532834 0.000000 0.000000 0.000000 -8.029646 -9.078677 2.067429 -39.859237 -25.166481 4.498151 -7.812570 -81.727637 7.303483 0.000000 0.000000 0.000000 -1.921281 16.723896 5.973856 8.841723 44.560471 1.384310 -76.710596 42.951977 -28.786720 0.000000 0.000000 0.000000 
0.021160 0.965506 -0.025561 -2.085405 16.487012 7.373508 4.834818 -0.527689 -5.096279 3.047132 0.148294 -8.026428 -5.485665 1.239464 18.336235 0.000000 0.000000 0.000000 -3.543469 0.544091 -8.095132 -1.698515 0.299445 1.926282 0.833830 -2.520803 19.772003 0.000000 0.000000 0.000000 -1.820361 0.068098 -1.638233 1.457216 -0.438383 -3.073860 -1.668109 -0.594496 -8.154068 3.717135 -0.435153 -14.165150 0.000000 0.000000 0.000000 -8.158337 -7.958576 1.331584 -40.293091 -20.685560 3.015331 -39.462841 -80.831011 33.479353 0.000000 0.000000 0.000000 -3.984340 15.750751 5.437419 4.152512 45.231505 0.015661 -66.660481 32.123322 -16.170412 0.000000 0.000000 0.000000 
0.021957 0.965839 -0.027146 -2.150760 17.271770 7.197653 5.080299 -0.558632 -5.474156 2.671430 0.134722 -7.503320 -5.862768 0.770591 18.257069 0.000000 0.000000 0.000000 -3.154078 0.548095 -7.820249 -1.791759 0.302893 1.647288 -0.285608 -4.335705 20.349581 0.000000 0.000000 0.000000 -1.064128 0.045337 -1.020013 0.711228 -0.073293 -3.476466 -2.667596 1.068320 -7.344452 5.468196 -1.310715 -14.005252 0.000000 0.000000 0.000000 -8.175597 -7.216125 0.768562 -39.444348 -16.241382 1.530917 -61.453464 -77.380495 49.405004 0.000000 0.000000 0.000000 -6.126069 14.924534 4.875817 -1.268820 44.535289 -1.527542 -57.198231 23.196349 -8.258552 0.000000 0.000000 0.000000 
0.022755 0.966379 -0.028344 -2.153182 17.726365 6.909864 5.325454 -0.588535 -5.914497 2.154179 0.111126 -6.460189 -6.052911 0.472992 18.090695 0.000000 0.000000 0.000000 -3.180658 0.522082 -7.502706 -1.691723 0.292197 1.735517 -0.590208 -4.766587 20.403669 0.000000 0.000000 0.000000 -0.640371 0.026358 -0.611720 -0.113157 0.300613 -3.693579 -3.155441 2.450774 -6.459607 7.123887 -2.040295 -14.647808 0.000000 0.000000 0.000000 -7.942738 -5.859200 0.100126 -38.736377 -12.265367 0.271466 -73.682754 -73.473093 56.032641 0.000000 0.000000 0.000000 -8.078393 14.712690 4.481869 -5.057749 43.112653 -2.449064 -46.854170 16.493443 -3.710951 0.000000 0.000000 0.000000 
0.023761 0.966677 -0.029082 -2.095793 18.033176 6.893958 5.500855 -0.608409 -6.169842 1.634319 0.113113 -6.113818 -6.200372 0.293964 18.095195 0.000000 0.000000 0.000000 -2.994083 0.512001 -7.129363 -2.046545 0.334000 1.483207 -0.902880 -5.154583 19.921130 0.000000 0.000000 0.000000 -0.228128 0.010818 -0.408310 -0.403418 0.401547 -3.369466 -3.645262 3.963064 -6.119933 7.950092 -2.488548 -14.260706 0.000000 0.000000 0.000000 -7.084309 -4.400553 -0.427154 -37.754407 -9.202708 -0.657474 -78.694782 -69.127234 55.594613 0.000000 0.000000 0.000000 -10.659275 14.017840 3.797448 -7.257608 41.970427 -2.732780 -38.164161 13.403771 -1.888637 0.000000 0.000000 0.000000 
0.024976 0.966618 -0.029298 -2.041152 17.848233 6.807256 5.473172 -0.621355 -6.491014 1.428985 0.095172 -5.273369 -6.038039 0.357623 17.822836 0.000000 0.000000 0.000000 -2.850179 0.524154 -7.152941 -2.161356 0.367727 1.897133 -1.390441 -5.933936 19.316449 0.000000 0.000000 0.000000 -0.048602 0.008657 -0.467339 -1.076998 0.659221 -2.950286 -3.301116 4.697061 -5.759088 8.570332 -2.817930 -14.322799 0.000000 0.000000 0.000000 -5.920514 -2.695778 -0.781079 -37.090145 -6.160024 -1.587522 -81.781825 -64.645361 53.628823 0.000000 0.000000 0.000000 -12.235820 14.217497 3.571306 -8.196436 40.505224 -2.790896 -32.534929 12.113021 -1.267398 0.000000 0.000000 0.000000 
0.026482 0.966317 -0.029222 -2.140860 17.566946 6.773801 5.422951 -0.622010 -6.581161 1.518469 0.082474 -4.946294 -5.827504 0.490704 17.564928 0.000000 0.000000 0.000000 -2.529688 0.523099 -6.738534 -2.611485 0.429001 1.812140 -1.308087 -5.661138 17.881704 0.000000 0.000000 0.000000 0.056634 0.003365 -0.384275 -1.104860 0.676845 -3.056779 -2.914603 5.547218 -5.341740 8.332908 -2.527379 -14.816138 0.000000 0.000000 0.000000 -4.674542 -0.874844 -1.101987 -36.384632 -4.470054 -2.127207 -85.058806 -59.751264 51.129434 0.000000 0.000000 0.000000 -13.657743 13.608126 3.105841 -6.927142 40.117304 -2.296104 -30.364880 12.057121 -1.106633 0.000000 0.000000 0.000000 
0.028050 0.965530 -0.028977 -2.327107 17.089655 6.793529 5.464252 -0.612542 -6.458289 1.594288 0.083327 -5.045266 -5.498988 0.743415 17.257677 0.000000 0.000000 0.000000 -2.324030 0.549799 -6.890998 -2.685730 0.431165 1.653439 -1.429338 -5.994120 18.172087 0.000000 0.000000 0.000000 0.028574 0.007054 -0.462491 -0.811967 0.531356 -2.794978 -2.662586 6.026714 -5.387064 8.107584 -2.469465 -14.432887 0.000000 0.000000 0.000000 -3.287763 0.337328 -1.104840 -35.318253 -3.855778 -2.279584 -88.952849 -56.819754 51.008743 0.000000 0.000000 0.000000 -13.791323 13.637056 3.083862 -5.240667 39.723204 -1.817218 -30.736908 13.156714 -1.331801 0.000000 0.000000 0.000000 
0.029515 0.964754 -0.028708 -2.384649 16.664058 6.769013 5.488569 -0.598412 -6.248914 1.472065 0.091647 -5.162046 -5.216751 0.957530 16.994419 0.000000 0.000000 0.000000 -2.400973 0.534985 -6.669843 -2.551124 0.413295 1.698110 -1.311293 -5.718745 16.998502 0.000000 0.000000 0.000000 -0.183987 0.021292 -0.734515 -0.329063 0.282349 -2.272522 -2.727793 6.209805 -5.868036 7.922099 -2.051969 -15.839211 0.000000 0.000000 0.000000 -2.838197 0.687559 -1.080251 -33.711956 -4.441768 -1.948057 -92.984666 -57.398912 54.826724 0.000000 0.000000 0.000000 -12.290543 13.370025 3.265781 -1.378234 39.360763 -0.870127 -33.653908 15.583843 -2.015282 0.000000 0.000000 0.000000 
0.030679 0.964670 -0.028456 -2.329947 16.465243 6.961516 5.511724 -0.583880 -5.934875 1.195129 0.122651 -5.918501 -5.159941 1.093998 17.163236 0.000000 0.000000 0.000000 -2.551563 0.534010 -6.754485 -2.579521 0.403465 1.419478 -1.191246 -5.565699 17.243182 0.000000 0.000000 0.000000 -0.413413 0.038909 -1.170014 -0.014101 0.125294 -2.046291 -2.674485 5.680816 -5.769472 6.900921 -1.491560 -15.945055 0.000000 0.000000 0.000000 -2.793650 0.484114 -0.980222 -32.081842 -8.689629 -0.802084 -97.469794 -62.839738 65.025357 0.000000 0.000000 0.000000 -11.056494 13.045952 3.387704 3.187384 38.511309 0.191527 -37.399918 19.628562 -3.384016 0.000000 0.000000 0.000000 
